<?xml version="1.0" encoding="UTF-8" standalone="no"?>
<!-- Created with Inkscape (http://www.inkscape.org/) -->

<svg
   width="2.7559056in"
   height="0.86614174in"
   viewBox="0 0 70.000003 22"
   version="1.1"
   id="svg1"
   xml:space="preserve"
   inkscape:version="1.3.2 (091e20e, 2023-11-25, custom)"
   sodipodi:docname="logo-tempalte.svg"
   inkscape:export-filename="logo-exported.svg"
   inkscape:export-xdpi="96"
   inkscape:export-ydpi="96"
   xmlns:inkscape="http://www.inkscape.org/namespaces/inkscape"
   xmlns:sodipodi="http://sodipodi.sourceforge.net/DTD/sodipodi-0.dtd"
   xmlns:xlink="http://www.w3.org/1999/xlink"
   xmlns="http://www.w3.org/2000/svg"
   xmlns:svg="http://www.w3.org/2000/svg"><sodipodi:namedview
     id="namedview1"
     pagecolor="#ffffff"
     bordercolor="#000000"
     borderopacity="0.25"
     inkscape:showpageshadow="2"
     inkscape:pageopacity="0.0"
     inkscape:pagecheckerboard="0"
     inkscape:deskcolor="#d1d1d1"
     inkscape:document-units="mm"
     showgrid="true"
     inkscape:zoom="4.0113826"
     inkscape:cx="105.94851"
     inkscape:cy="37.393591"
     inkscape:window-width="1920"
     inkscape:window-height="992"
     inkscape:window-x="-8"
     inkscape:window-y="-8"
     inkscape:window-maximized="1"
     inkscape:current-layer="layer2"><inkscape:grid
       id="grid1"
       units="mm"
       originx="-9.9999994"
       originy="3.5527137e-15"
       spacingx="1"
       spacingy="1"
       empcolor="#0099e5"
       empopacity="0.30196078"
       color="#0099e5"
       opacity="0.14901961"
       empspacing="5"
       dotted="false"
       gridanglex="30"
       gridanglez="30"
       visible="true" /></sodipodi:namedview><defs
     id="defs1"><linearGradient
       id="linearGradient4"
       inkscape:collect="always"><stop
         style="stop-color:#0a1e1e;stop-opacity:1;"
         offset="0.62841588"
         id="stop4" /><stop
         style="stop-color:#0a1e1e;stop-opacity:0.44664031;"
         offset="0.90207922"
         id="stop6" /><stop
         style="stop-color:#0b0000;stop-opacity:0;"
         offset="1"
         id="stop5" /></linearGradient><radialGradient
       inkscape:collect="always"
       xlink:href="#linearGradient4"
       id="radialGradient5"
       cx="70"
       cy="12.599403"
       fx="70"
       fy="12.599403"
       r="17.909548"
       gradientTransform="matrix(1.9542648,0,0,0.61419758,-91.798541,3.261478)"
       gradientUnits="userSpaceOnUse"
       spreadMethod="pad" /></defs><g
     inkscape:groupmode="layer"
     id="layer3"
     inkscape:label="Layer 3"
     style="display:inline"
     transform="translate(-10)"><rect
       style="display:none;opacity:1;fill:#000000;fill-opacity:1;fill-rule:nonzero;stroke-width:0.0105293;stroke-dasharray:none;paint-order:stroke fill markers"
       id="rect5"
       width="88.900002"
       height="22"
       x="0"
       y="0"
       ry="0"
       sodipodi:insensitive="true" /></g><g
     inkscape:groupmode="layer"
     id="layer2"
     inkscape:label="Layer 2"
     style="display:inline"
     sodipodi:insensitive="true"
     transform="translate(-10)"><rect
       style="fill:url(#radialGradient5);stroke-width:0.0230026;stroke-dasharray:none;paint-order:stroke fill markers"
       id="rect1"
       width="70"
       height="22"
       x="10"
       y="-1.7763568e-15"
       inkscape:transform-center-x="53.411453"
       inkscape:transform-center-y="-8.4843052"
       ry="11" /></g><g
     inkscape:label="Layer 1"
     inkscape:groupmode="layer"
     id="layer1"
     transform="translate(-10)"><path
       d="m 44.000001,16.125389 c -0.06876,0 -0.125001,-0.05625 -0.125001,-0.125 V 13.00039 c 0,-0.06875 0.05625,-0.125001 0.125001,-0.125001 H 45.25 v 0.625 c 0,0.138283 0.111718,0.25 0.25,0.25 h 0.625 v 2.25 c 0,0.06876 -0.05625,0.125 -0.125001,0.125 z m 0,-3.624999 c -0.275782,0 -0.500001,0.22422 -0.500001,0.5 v 2.999999 c 0,0.275782 0.224219,0.5 0.500001,0.5 h 1.999998 c 0.275782,0 0.500001,-0.224218 0.500001,-0.5 v -2.292968 c 0,-0.132813 -0.05234,-0.260157 -0.146094,-0.353906 L 45.646093,12.646484 C 45.552343,12.552734 45.42578,12.50039 45.292969,12.50039 Z m 0.437499,2 c -0.103906,0 -0.1875,0.08359 -0.1875,0.1875 0,0.103906 0.08359,0.1875 0.1875,0.1875 h 1.125 c 0.103906,0 0.187499,-0.08359 0.187499,-0.1875 0,-0.103908 -0.08359,-0.1875 -0.187499,-0.1875 z m 0,0.749999 c -0.103906,0 -0.1875,0.0836 -0.1875,0.187501 0,0.103907 0.08359,0.187499 0.1875,0.187499 h 1.125 c 0.103906,0 0.187499,-0.08359 0.187499,-0.187499 0,-0.103907 -0.08359,-0.187501 -0.187499,-0.187501 z"
       id="path1-2"
       style="display:inline;fill:#e0e0e0;fill-opacity:0.95;stroke-width:0.00781249" /><path
       d="m 45,8.000001 c 0.138279,0 0.250003,0.111719 0.250003,0.249999 v 0.5 H 46.1875 c 0.310938,0 0.562503,0.251564 0.562503,0.5625 v 2.125 c 0,0.310938 -0.251565,0.562501 -0.562503,0.562501 h -2.375002 c -0.310937,0 -0.562496,-0.251563 -0.562496,-0.562501 v -2.125 c 0,-0.310936 0.251559,-0.5625 0.562496,-0.5625 h 0.937504 V 8.25 C 44.750002,8.11172 44.86172,8.000001 45,8.000001 Z m -0.875,3 c -0.06874,0 -0.125,0.05625 -0.125,0.125 0,0.06875 0.05625,0.125001 0.125,0.125001 h 0.25 c 0.06874,0 0.125,-0.05625 0.125,-0.125001 0,-0.06875 -0.05625,-0.125 -0.125,-0.125 z m 0.75,0 c -0.06876,0 -0.124997,0.05625 -0.124997,0.125 0,0.06875 0.05624,0.125001 0.124997,0.125001 h 0.25 c 0.06874,0 0.125003,-0.05625 0.125003,-0.125001 0,-0.06875 -0.05625,-0.125 -0.125003,-0.125 z m 0.75,0 c -0.06874,0 -0.125,0.05625 -0.125,0.125 0,0.06875 0.05625,0.125001 0.125,0.125001 h 0.249999 c 0.06875,0 0.125001,-0.05625 0.125001,-0.125001 0,-0.06875 -0.05625,-0.125 -0.125001,-0.125 z M 44.562502,10 a 0.3125015,0.3125015 0 1 0 -0.625003,0 0.3125015,0.3125015 0 1 0 0.625003,0 z m 1.1875,0.312501 a 0.31250045,0.31250043 0 1 0 0,-0.625 0.31250045,0.31250043 0 1 0 0,0.625 z M 42.875,9.75 H 43 v 1.500002 h -0.125 c -0.207031,0 -0.375,-0.16797 -0.375,-0.375001 v -0.75 C 42.5,9.91797 42.667969,9.75 42.875,9.75 Z m 4.25,0 c 0.20703,0 0.375,0.16797 0.375,0.375001 v 0.75 c 0,0.207031 -0.16797,0.375001 -0.375,0.375001 H 47 V 9.75 Z"
       id="path1"
       style="mix-blend-mode:normal;fill:#e0e0e0;fill-opacity:0.94902;fill-rule:nonzero;stroke-width:0.008;stroke-dasharray:none" /><path
       d="m 40.885226,11.50553 c -0.0797,-0.02296 -0.162669,0.02344 -0.185639,0.103133 l -0.600048,2.100163 c -0.02296,0.0797 0.02344,0.162669 0.103133,0.18564 0.07969,0.02297 0.162669,-0.02344 0.18564,-0.103134 l 0.600046,-2.100163 c 0.02297,-0.07969 -0.02345,-0.16267 -0.103132,-0.185639 z m 0.377842,0.563012 c -0.0586,0.0586 -0.0586,0.153762 0,0.21236 l 0.418625,0.419096 -0.419092,0.419095 c -0.0586,0.0586 -0.0586,0.153762 0,0.21236 0.05859,0.0586 0.153759,0.0586 0.212358,0 L 42,12.806413 c 0.0586,-0.0586 0.0586,-0.153762 0,-0.212361 L 41.474959,12.06901 c -0.0586,-0.0586 -0.153763,-0.0586 -0.212358,0 z m -1.43777,0 c -0.05859,-0.0586 -0.15376,-0.0586 -0.212358,0 l -0.525043,0.525042 c -0.0586,0.0586 -0.0586,0.153763 0,0.21236 l 0.525043,0.525041 c 0.0586,0.0586 0.153762,0.0586 0.212358,0 0.0586,-0.0586 0.0586,-0.153762 0,-0.21236 l -0.419094,-0.418626 0.419094,-0.419096 c 0.0586,-0.0586 0.0586,-0.15376 0,-0.212361 z"
       id="path1-0"
       style="display:inline;fill:#e0e0e0;fill-opacity:0.95;stroke-width:0.00468787" /><path
       d="m 50.00874,13.067204 c 0.507175,0 0.917964,-0.410789 0.917964,-0.917963 0,-0.08779 -0.01262,-0.172692 -0.03557,-0.253588 -0.01778,-0.06197 -0.09409,-0.07573 -0.139416,-0.03041 l -0.440622,0.440622 c -0.01722,0.01721 -0.04073,0.02695 -0.06484,0.02695 h -0.32932 c -0.05049,0 -0.0918,-0.0413 -0.0918,-0.09179 v -0.32932 c 0,-0.0241 0.0098,-0.04762 0.02696,-0.06484 l 0.440623,-0.440621 c 0.04533,-0.04532 0.03098,-0.121633 -0.03041,-0.139419 -0.08089,-0.02295 -0.165803,-0.03557 -0.253584,-0.03557 -0.507174,0 -0.917963,0.410787 -0.917963,0.917962 0,0.109577 0.0195,0.215146 0.0545,0.312681 l -1.041889,1.041888 c -0.07286,0.07287 -0.114169,0.172127 -0.114169,0.275398 0,0.215148 0.174413,0.389561 0.389561,0.389561 0.103271,0 0.202525,-0.04132 0.275389,-0.114175 l 1.041889,-1.041889 c 0.09753,0.03557 0.2031,0.05451 0.312682,0.05451 z m -1.560539,0.50488 a 0.13769462,0.13769443 0 1 1 0,0.275387 0.13769462,0.13769443 0 1 1 0,-0.275387 z"
       id="path1-8"
       style="fill:#e0e0e0;fill-opacity:0.94902;stroke-width:0.00573729" /><path
       d="M 40.501714,5.894298 40.303557,5.696141 c 0.02458,-0.06321 0.03762,-0.131436 0.03762,-0.203174 0,-0.31053 -0.251334,-0.561864 -0.561864,-0.561864 -0.310529,0 -0.561863,0.251334 -0.561863,0.561864 0,0.31053 0.251334,0.561863 0.561863,0.561863 0.07174,0 0.139965,-0.01355 0.203174,-0.03763 l 0.198157,0.198157 -0.198157,0.198157 c -0.06321,-0.02458 -0.131436,-0.03763 -0.203174,-0.03763 -0.310529,0 -0.561863,0.251334 -0.561863,0.561864 5e-6,0.31053 0.251339,0.561864 0.561868,0.561864 0.31053,0 0.561864,-0.251334 0.561864,-0.561864 0,-0.07174 -0.01355,-0.139964 -0.03762,-0.203174 l 1.418204,-1.418203 c 0.03562,-0.03562 0.03562,-0.09281 0,-0.128426 -0.141971,-0.141971 -0.371733,-0.141971 -0.513704,0 z m 0.113376,0.755505 0.592967,0.592967 c 0.141971,0.141971 0.371733,0.141971 0.513704,0 0.03562,-0.03562 0.03562,-0.09281 0,-0.128426 L 40.936155,6.328739 Z M 39.53852,5.492967 a 0.24079863,0.24079863 0 1 1 0.481597,0 0.24079863,0.24079863 0 1 1 -0.481597,0 z m 0.240798,1.203993 a 0.24079862,0.24079862 0 1 1 0,0.481597 0.24079862,0.24079862 0 1 1 0,-0.481597 z"
       id="path1-4"
       style="fill:#e0e0e0;fill-opacity:0.94902;stroke-width:0.00501663" /><path
       d="m 37.341131,12.37894 -0.198158,-0.198157 c 0.02458,-0.06321 0.03762,-0.131436 0.03762,-0.203174 0,-0.31053 -0.251334,-0.561864 -0.561864,-0.561864 -0.310529,0 -0.561863,0.251334 -0.561863,0.561864 0,0.31053 0.251334,0.561863 0.561863,0.561863 0.07174,0 0.139965,-0.01355 0.203174,-0.03763 l 0.198157,0.198157 -0.198157,0.198157 c -0.06321,-0.02458 -0.131436,-0.03763 -0.203174,-0.03763 -0.310529,0 -0.561863,0.251334 -0.561863,0.561864 5e-6,0.31053 0.251339,0.561864 0.561868,0.561864 0.31053,0 0.561864,-0.251334 0.561864,-0.561864 0,-0.07174 -0.01355,-0.139964 -0.03762,-0.203174 l 1.418204,-1.418203 c 0.03562,-0.03562 0.03562,-0.09281 0,-0.128426 -0.141971,-0.141971 -0.371733,-0.141971 -0.513704,0 z m 0.113376,0.755505 0.592967,0.592967 c 0.141971,0.141971 0.371733,0.141971 0.513704,0 0.03562,-0.03562 0.03562,-0.09281 0,-0.128426 l -0.785606,-0.785605 z m -1.07657,-1.156836 a 0.24079863,0.24079863 0 1 1 0.481597,0 0.24079863,0.24079863 0 1 1 -0.481597,0 z m 0.240798,1.203993 a 0.24079862,0.24079862 0 1 1 0,0.481597 0.24079862,0.24079862 0 1 1 0,-0.481597 z"
       id="path1-4-9"
       style="fill:#e0e0e0;fill-opacity:0.94902;stroke-width:0.00501663" /><path
       d="m 51.468251,11.75388 c -0.06979,-0.06979 -0.06979,-0.18258 0,-0.252373 0.06979,-0.06979 0.183138,-0.06979 0.25293,0 l 1.072027,1.072027 c 0.06979,0.06979 0.06979,0.183138 0,0.252931 l -1.072027,1.072027 c -0.06979,0.06979 -0.183138,0.06979 -0.25293,0 -0.06979,-0.06979 -0.06979,-0.183138 0,-0.252931 l 0.945282,-0.945841 z m 1.376885,1.839196 h 1.60804 c 0.09883,0 0.178671,0.07984 0.178671,0.178671 0,0.09883 -0.07984,0.178671 -0.178671,0.178671 h -1.60804 c -0.09883,0 -0.178671,-0.07984 -0.178671,-0.178671 0,-0.09883 0.07984,-0.178671 0.178671,-0.178671 z"
       id="path1-6"
       style="fill:#e0e0e0;fill-opacity:0.94902;stroke-width:0.00558345" /><text
       xml:space="preserve"
       style="font-size:3.175px;opacity:1;fill:#e0e0e0;fill-opacity:0.94902;fill-rule:nonzero;stroke:#000000;stroke-width:0.00799999;stroke-dasharray:none;stroke-opacity:1;paint-order:stroke fill markers"
       x="41.929588"
       y="7.2750778"
       id="text5"><tspan
         sodipodi:role="line"
         id="tspan5"
         style="stroke:#000000;stroke-width:0.008;stroke-opacity:1"
         x="41.929588"
         y="7.2750778">inator</tspan></text></g></svg>
